<?xml version="1.0" encoding="utf-8"?>
<!-- Generator: Adobe Illustrator 27.0.1, SVG Export Plug-In . SVG Version: 6.00 Build 0)  -->
<svg version="1.1" id="Layer_1" xmlns="http://www.w3.org/2000/svg" xmlns:xlink="http://www.w3.org/1999/xlink" x="0px" y="0px"
	 viewBox="0 0 180 42" style="enable-background:new 0 0 180 42;" xml:space="preserve">
<style type="text/css">
	.st0{fill:#FFFFFF;}
</style>
<g>
	<path class="st0" d="M48.99,21.3l-1.04,1.08v2.88h-1.12v-8.53h1.12v4.22l3.79-4.22h1.36l-3.36,3.77l3.62,4.76h-1.35L48.99,21.3z"/>
	<path class="st0" d="M56.15,25.27h-1.12v-8.53h1.12V25.27z"/>
	<path class="st0" d="M60.26,16.73l2.79,6.96l2.79-6.96h1.46v8.53h-1.12v-3.32l0.11-3.59l-2.8,6.91h-0.86l-2.79-6.89l0.11,3.57v3.32
		h-1.12v-8.53H60.26z"/>
	<path class="st0" d="M69.88,25.27v-8.53h2.79c0.93,0,1.62,0.19,2.09,0.57s0.7,0.95,0.7,1.7c0,0.4-0.11,0.75-0.34,1.06
		s-0.54,0.54-0.93,0.71c0.46,0.13,0.83,0.37,1.09,0.74s0.4,0.79,0.4,1.29c0,0.77-0.25,1.37-0.74,1.8s-1.2,0.66-2.1,0.66H69.88z
		 M71.01,20.37h1.7c0.49,0,0.89-0.12,1.18-0.37c0.29-0.25,0.44-0.58,0.44-1c0-0.47-0.14-0.81-0.41-1.02
		c-0.27-0.21-0.69-0.32-1.25-0.32h-1.66V20.37z M71.01,21.28v3.07h1.86c0.52,0,0.94-0.14,1.24-0.41s0.45-0.65,0.45-1.12
		c0-1.03-0.56-1.54-1.68-1.54H71.01z"/>
	<path class="st0" d="M82.78,21.32h-3.7v3.02h4.29v0.92h-5.42v-8.53h5.36v0.92h-4.24v2.75h3.7V21.32z"/>
	<path class="st0" d="M88.5,21.81h-2v3.45h-1.13v-8.53h2.82c0.96,0,1.7,0.22,2.22,0.66s0.78,1.07,0.78,1.91
		c0,0.53-0.14,0.99-0.43,1.39s-0.69,0.69-1.2,0.88l2,3.62v0.07h-1.21L88.5,21.81z M86.5,20.89h1.73c0.56,0,1-0.14,1.33-0.43
		c0.33-0.29,0.5-0.68,0.5-1.16c0-0.53-0.16-0.93-0.47-1.21s-0.77-0.42-1.36-0.43H86.5V20.89z"/>
	<path class="st0" d="M94.5,24.35h4.04v0.92h-5.17v-8.53h1.13V24.35z"/>
	<path class="st0" d="M101.62,21.02l2.23-4.28h1.28l-2.94,5.35v3.18h-1.12v-3.18l-2.94-5.35h1.29L101.62,21.02z"/>
	<path class="st0" d="M113.22,23.77l2.44-7.04h1.23l-3.16,8.53h-1l-3.16-8.53h1.22L113.22,23.77z"/>
	<path class="st0" d="M122.91,23.03h-3.57l-0.8,2.23h-1.16l3.26-8.53h0.98l3.26,8.53h-1.15L122.91,23.03z M119.67,22.11h2.9
		l-1.45-3.99L119.67,22.11z"/>
	<path class="st0" d="M133.18,25.27h-1.13l-4.29-6.57v6.57h-1.13v-8.53h1.13l4.31,6.6v-6.6h1.12V25.27z"/>
</g>
</svg>
