<?xml version="1.0" encoding="utf-8"?>
<!-- Generator: Adobe Illustrator 27.0.1, SVG Export Plug-In . SVG Version: 6.00 Build 0)  -->
<svg version="1.1" id="Layer_1" xmlns="http://www.w3.org/2000/svg" xmlns:xlink="http://www.w3.org/1999/xlink" x="0px" y="0px"
	 viewBox="0 0 180 36" style="enable-background:new 0 0 180 36;" xml:space="preserve">
<style type="text/css">
	.st0{fill:#FFFFFF;}
</style>
<g>
	<path class="st0" d="M0,25.93v-0.95c0.68,0,1.16-0.04,1.46-0.12c0.3-0.08,0.48-0.23,0.55-0.46c0.07-0.23,0.1-0.58,0.1-1.04V9.46
		c0-0.5-0.04-0.87-0.12-1.1C1.92,8.13,1.73,7.98,1.43,7.9C1.13,7.82,0.66,7.79,0,7.79V6.83h8.59v0.95c-0.62,0-1.08,0.04-1.37,0.12
		c-0.3,0.08-0.49,0.24-0.58,0.48c-0.09,0.24-0.13,0.6-0.13,1.08v13.89c0,0.46,0.04,0.81,0.13,1.06c0.09,0.24,0.27,0.4,0.56,0.46
		c0.29,0.07,0.75,0.1,1.39,0.1v0.95H0z M5.85,18.23v-1.48l7.35-7.67c0.31-0.35,0.44-0.65,0.41-0.91c-0.04-0.26-0.26-0.39-0.67-0.39
		h-0.87V6.83h6.19v0.95c-0.6,0-1.15,0.12-1.66,0.36c-0.51,0.24-1.03,0.6-1.56,1.07c-0.53,0.47-1.13,1.05-1.81,1.72L5.85,18.23z
		 M10.94,25.93v-0.95h0.75c0.44,0,0.67-0.13,0.69-0.39c0.02-0.26-0.14-0.64-0.49-1.14l-4.92-7.32l2.98-2.98l5.3,7.64
		c0.69,1,1.27,1.81,1.74,2.43c0.46,0.62,0.9,1.07,1.3,1.35c0.41,0.28,0.89,0.42,1.45,0.42v0.95H10.94z"/>
	<path class="st0" d="M20.58,25.93v-0.95c0.56,0,0.97-0.04,1.23-0.12c0.26-0.08,0.43-0.22,0.51-0.42c0.08-0.2,0.12-0.51,0.12-0.91
		v-8.57c0-0.44-0.05-0.74-0.16-0.88c-0.11-0.14-0.32-0.22-0.65-0.22h-0.95v-0.95l4.6-0.72h1.27v11.34c0,0.41,0.04,0.71,0.12,0.91
		c0.08,0.2,0.24,0.34,0.48,0.42c0.24,0.08,0.6,0.12,1.09,0.12v0.95H20.58z M24.37,10.56c-0.64,0-1.19-0.22-1.66-0.67
		c-0.47-0.44-0.71-0.98-0.71-1.62c0-0.66,0.24-1.21,0.71-1.65c0.47-0.44,1.03-0.67,1.66-0.67c0.44,0,0.84,0.11,1.2,0.32
		c0.36,0.21,0.64,0.49,0.85,0.84c0.21,0.35,0.32,0.73,0.32,1.16c0,0.64-0.24,1.18-0.71,1.62C25.56,10.34,25,10.56,24.37,10.56z"/>
	<path class="st0" d="M29.66,25.93v-0.95c0.56,0,0.97-0.03,1.23-0.1c0.26-0.07,0.43-0.21,0.51-0.42c0.08-0.21,0.12-0.52,0.12-0.93
		v-8.57c0-0.42-0.05-0.71-0.16-0.87c-0.11-0.15-0.33-0.23-0.68-0.23h-0.95v-0.95l4.54-0.72h1.24v1.85h0.12v9.55
		c0,0.41,0.04,0.71,0.13,0.91c0.09,0.2,0.24,0.33,0.46,0.39c0.22,0.06,0.55,0.09,1,0.09v0.95H29.66z M38.84,25.93v-0.95
		c0.44,0,0.77-0.03,0.97-0.09c0.2-0.06,0.34-0.18,0.42-0.38c0.08-0.19,0.12-0.47,0.12-0.84v-6.95c0-0.71-0.08-1.29-0.25-1.72
		c-0.16-0.43-0.41-0.75-0.72-0.94c-0.32-0.19-0.72-0.29-1.2-0.29c-0.35,0-0.68,0.06-0.98,0.17c-0.31,0.12-0.61,0.3-0.91,0.55
		c-0.3,0.25-0.62,0.58-0.97,0.98l-0.12-1.07c0.41-0.42,0.85-0.81,1.33-1.17c0.48-0.36,1.03-0.65,1.65-0.88
		c0.62-0.23,1.3-0.35,2.05-0.35c0.94,0,1.73,0.17,2.34,0.51c0.62,0.34,1.08,0.78,1.39,1.32c0.31,0.54,0.46,1.12,0.46,1.74v7.96
		c0,0.41,0.03,0.71,0.1,0.91c0.07,0.2,0.21,0.34,0.43,0.42c0.22,0.08,0.56,0.12,1.03,0.12v0.95H38.84z M47.61,25.93v-0.95
		c0.44,0,0.77-0.03,0.98-0.09c0.21-0.06,0.35-0.18,0.42-0.38c0.07-0.19,0.1-0.47,0.1-0.84v-6.95c0-0.69-0.09-1.26-0.26-1.69
		c-0.17-0.43-0.42-0.75-0.75-0.95c-0.33-0.2-0.71-0.3-1.16-0.3c-0.42,0-0.8,0.09-1.13,0.26c-0.33,0.17-0.62,0.42-0.87,0.74
		c-0.25,0.32-0.46,0.71-0.64,1.17l-0.58-0.81c0.46-1,1.12-1.77,1.98-2.32c0.86-0.54,1.91-0.81,3.14-0.81c1.35,0,2.42,0.36,3.2,1.09
		c0.78,0.72,1.17,1.88,1.17,3.46v6.97c0,0.41,0.04,0.71,0.12,0.91c0.08,0.2,0.24,0.34,0.49,0.42c0.25,0.08,0.64,0.12,1.16,0.12v0.95
		H47.61z"/>
	<path class="st0" d="M57.24,25.93V8.8c0-0.48-0.06-0.8-0.17-0.94c-0.12-0.14-0.39-0.22-0.81-0.22h-0.81V6.66l4.6-0.69h1.27v19.1
		h-1.85l-0.84,0.87H57.24z M63.93,26.28c-0.66,0-1.25-0.06-1.78-0.19c-0.53-0.13-1.02-0.28-1.48-0.48
		c-0.45-0.19-0.91-0.41-1.37-0.64l0.67-2.69c0.19,0.29,0.41,0.61,0.65,0.95c0.24,0.35,0.51,0.67,0.81,0.97
		c0.3,0.3,0.64,0.55,1.01,0.74c0.38,0.19,0.79,0.29,1.23,0.29c1.02,0,1.77-0.46,2.26-1.37c0.48-0.92,0.72-2.43,0.72-4.53
		c0-1.81-0.23-3.22-0.69-4.21c-0.46-0.99-1.21-1.49-2.23-1.49c-0.44,0-0.85,0.12-1.22,0.35c-0.37,0.23-0.7,0.5-1,0.8
		c-0.3,0.3-0.57,0.57-0.82,0.82l0.09-1.56c0.37-0.39,0.77-0.73,1.2-1.03c0.43-0.3,0.94-0.54,1.5-0.72c0.57-0.18,1.22-0.27,1.95-0.27
		c1.72,0,3.07,0.57,4.05,1.71c0.98,1.14,1.48,2.83,1.48,5.06c0,1.66-0.28,3.04-0.85,4.15c-0.57,1.11-1.37,1.94-2.42,2.5
		S65.39,26.28,63.93,26.28z M60.69,13.83v-0.38h0.95v0.38H60.69z"/>
	<path class="st0" d="M79.55,26.25c-2.12,0-3.74-0.59-4.85-1.78c-1.11-1.19-1.66-2.96-1.66-5.31c0-1.6,0.26-2.93,0.77-3.99
		s1.25-1.85,2.23-2.37c0.97-0.52,2.17-0.78,3.6-0.78c1.12,0,2.08,0.16,2.89,0.48c0.81,0.32,1.47,0.78,1.98,1.39s0.89,1.34,1.13,2.19
		c0.24,0.85,0.36,1.82,0.36,2.92v0.26H75.5V18.2h6.19c0-1.18-0.05-2.14-0.16-2.89c-0.11-0.75-0.31-1.32-0.61-1.69
		c-0.3-0.38-0.74-0.56-1.32-0.56c-0.48,0-0.89,0.15-1.23,0.46c-0.34,0.31-0.59,0.85-0.77,1.62c-0.17,0.77-0.26,1.84-0.26,3.21
		c0,1.06,0.06,1.97,0.17,2.74c0.12,0.76,0.3,1.39,0.56,1.89c0.26,0.5,0.62,0.87,1.07,1.11c0.45,0.24,1.01,0.36,1.66,0.36
		c0.67,0,1.26-0.11,1.75-0.33c0.49-0.22,0.92-0.54,1.27-0.94c0.36-0.41,0.65-0.88,0.88-1.42l0.98,0.52c-0.25,0.6-0.6,1.21-1.04,1.82
		c-0.44,0.62-1.07,1.13-1.87,1.53C82.01,26.05,80.92,26.25,79.55,26.25z"/>
	<path class="st0" d="M87.77,25.93v-0.95c0.56,0,0.97-0.04,1.23-0.12c0.26-0.08,0.43-0.22,0.51-0.42c0.08-0.2,0.12-0.51,0.12-0.91
		v-8.57c0-0.42-0.05-0.71-0.16-0.87c-0.11-0.15-0.33-0.23-0.68-0.23h-0.95v-0.95l4.54-0.72h1.24v2.66h0.12v8.68
		c0,0.41,0.05,0.71,0.16,0.91c0.11,0.2,0.32,0.34,0.64,0.42c0.32,0.08,0.8,0.12,1.43,0.12v0.95H87.77z M93.15,18.12v-1.85
		c0.08-0.25,0.21-0.6,0.39-1.06c0.18-0.45,0.44-0.92,0.77-1.4c0.33-0.48,0.74-0.9,1.23-1.24s1.09-0.52,1.78-0.52
		c0.81,0,1.44,0.24,1.88,0.71c0.44,0.47,0.67,1.08,0.67,1.81c0,0.58-0.16,1.1-0.48,1.55c-0.32,0.45-0.84,0.68-1.58,0.68
		c-0.58,0-1.05-0.15-1.4-0.45s-0.53-0.73-0.53-1.29c0-0.29,0.04-0.51,0.13-0.67c0.09-0.15,0.17-0.27,0.26-0.36
		c0.09-0.09,0.13-0.17,0.13-0.25c0-0.06-0.03-0.11-0.09-0.16c-0.06-0.05-0.14-0.07-0.26-0.07c-0.23,0-0.48,0.14-0.75,0.41
		c-0.27,0.27-0.52,0.64-0.75,1.1c-0.23,0.46-0.42,0.96-0.58,1.49c-0.16,0.53-0.23,1.05-0.23,1.55L93.15,18.12z"/>
	<path class="st0" d="M99.98,25.93v-0.95c0.54,0,0.95-0.04,1.22-0.12c0.27-0.08,0.44-0.22,0.52-0.43c0.08-0.21,0.12-0.51,0.12-0.9
		V8.77c0-0.44-0.05-0.74-0.16-0.9c-0.11-0.15-0.33-0.23-0.68-0.23h-0.95V6.69l4.66-0.72h1.24v17.57c0,0.41,0.04,0.71,0.12,0.91
		c0.08,0.2,0.24,0.34,0.48,0.42c0.24,0.08,0.6,0.12,1.08,0.12v0.95H99.98z"/>
	<path class="st0" d="M115.38,27.15l-5.24-12.68c-0.14-0.37-0.27-0.63-0.41-0.8c-0.14-0.16-0.32-0.27-0.55-0.32
		c-0.23-0.05-0.58-0.07-1.04-0.07v-0.95h7.7v0.95h-0.9c-0.23,0-0.4,0.08-0.51,0.25c-0.11,0.16-0.1,0.42,0.01,0.77l2.6,7h0.75
		L115.38,27.15z M111.62,32.04c-0.52,0-1-0.11-1.45-0.33c-0.44-0.22-0.8-0.53-1.06-0.93c-0.26-0.4-0.39-0.83-0.39-1.32
		c0-0.52,0.18-0.98,0.54-1.37c0.36-0.4,0.81-0.59,1.37-0.59c0.54,0,0.97,0.16,1.29,0.49c0.32,0.33,0.48,0.74,0.48,1.24
		c0,0.25-0.04,0.45-0.12,0.59c-0.08,0.14-0.16,0.26-0.25,0.35c-0.09,0.09-0.13,0.2-0.13,0.33c0,0.13,0.05,0.24,0.14,0.32
		c0.1,0.08,0.22,0.12,0.38,0.12c0.35,0,0.68-0.21,1.01-0.64c0.33-0.43,0.68-1.14,1.07-2.14l5.35-14.01c0.1-0.27,0.1-0.48,0-0.64
		c-0.1-0.15-0.27-0.23-0.52-0.23h-0.95v-0.95h4.6v0.95c-0.31,0-0.57,0.03-0.8,0.1c-0.22,0.07-0.41,0.21-0.58,0.43
		c-0.16,0.22-0.35,0.57-0.57,1.06l-4.37,10.71c-0.35,0.83-0.67,1.64-0.97,2.42c-0.3,0.78-0.63,1.48-0.98,2.08
		c-0.36,0.61-0.78,1.08-1.27,1.43C112.96,31.86,112.35,32.04,111.62,32.04z"/>
	<path class="st0" d="M138.04,25.93l-5.87-16.7c-0.14-0.39-0.29-0.68-0.46-0.88c-0.17-0.2-0.4-0.35-0.67-0.43
		c-0.27-0.09-0.63-0.13-1.07-0.13V6.83h8.68v0.95h-1.24c-0.39,0-0.64,0.1-0.77,0.3c-0.13,0.2-0.11,0.52,0.04,0.94l4.37,12.56h0.09
		l4.11-12.44c0.15-0.42,0.19-0.76,0.1-1c-0.09-0.24-0.35-0.36-0.79-0.36h-1.3V6.83h5.76v0.95c-0.62,0-1.09,0.13-1.42,0.38
		c-0.33,0.25-0.62,0.71-0.87,1.39l-5.93,16.38H138.04z"/>
	<path class="st0" d="M152.48,26.25c-1.27,0-2.26-0.26-2.95-0.78c-0.69-0.52-1.04-1.28-1.04-2.29c0-0.96,0.39-1.81,1.16-2.55
		c0.77-0.73,1.85-1.36,3.24-1.87c1.39-0.51,3.01-0.89,4.86-1.14v1.1c-1.81,0.35-3.13,0.82-3.95,1.42c-0.82,0.6-1.23,1.39-1.23,2.37
		c0,0.71,0.15,1.23,0.46,1.53c0.31,0.31,0.77,0.46,1.39,0.46c0.43,0,0.83-0.1,1.2-0.3c0.38-0.2,0.72-0.43,1.03-0.69
		c0.31-0.26,0.56-0.49,0.75-0.68l0.32,0.95c-0.37,0.37-0.79,0.74-1.27,1.13c-0.48,0.39-1.04,0.7-1.68,0.95
		C154.13,26.12,153.37,26.25,152.48,26.25z M159.19,26.25c-0.62,0-1.13-0.09-1.53-0.26c-0.41-0.17-0.7-0.41-0.9-0.72
		s-0.29-0.66-0.29-1.04v-8.57c0-0.81-0.15-1.42-0.46-1.84c-0.31-0.41-0.88-0.62-1.71-0.62c-0.29,0-0.56,0.03-0.82,0.09
		c-0.26,0.06-0.47,0.14-0.62,0.26c-0.15,0.12-0.23,0.25-0.23,0.41c0,0.17,0.06,0.33,0.19,0.46c0.13,0.14,0.25,0.28,0.36,0.45
		c0.12,0.16,0.17,0.41,0.17,0.74c0,0.48-0.17,0.91-0.52,1.27c-0.35,0.37-0.84,0.55-1.48,0.55c-0.64,0-1.13-0.18-1.48-0.55
		c-0.35-0.37-0.52-0.78-0.52-1.24c0-0.56,0.22-1.11,0.65-1.66c0.43-0.55,1.12-1.01,2.07-1.38c0.94-0.37,2.18-0.55,3.7-0.55
		c1.66,0,2.87,0.37,3.63,1.1c0.76,0.73,1.14,1.91,1.14,3.53v6.37c0,0.71,0.07,1.18,0.2,1.4c0.13,0.22,0.34,0.33,0.61,0.33
		c0.23,0,0.42-0.03,0.56-0.1c0.14-0.07,0.28-0.13,0.42-0.19l0.32,0.84c-0.48,0.31-1,0.54-1.56,0.69S159.91,26.25,159.19,26.25z"/>
	<path class="st0" d="M163.39,25.93v-0.95c0.56,0,0.97-0.03,1.23-0.1c0.26-0.07,0.43-0.21,0.51-0.42c0.08-0.21,0.12-0.52,0.12-0.93
		v-8.57c0-0.42-0.05-0.71-0.16-0.87c-0.11-0.15-0.33-0.23-0.68-0.23h-0.95v-0.95l4.54-0.72h1.24v1.91h0.12v9.49
		c0,0.41,0.04,0.71,0.13,0.91c0.09,0.2,0.24,0.33,0.46,0.39c0.22,0.06,0.55,0.09,1,0.09v0.95H163.39z M172.62,25.93v-0.95
		c0.44,0,0.77-0.03,0.98-0.09c0.21-0.06,0.35-0.18,0.42-0.38c0.07-0.19,0.1-0.47,0.1-0.84v-6.95c0-0.71-0.08-1.29-0.25-1.72
		c-0.16-0.43-0.41-0.75-0.72-0.94c-0.32-0.19-0.7-0.29-1.14-0.29c-0.58,0-1.08,0.14-1.5,0.43c-0.42,0.29-0.9,0.68-1.42,1.19
		L169,14.41c0.39-0.41,0.82-0.79,1.3-1.16c0.48-0.37,1.03-0.67,1.64-0.9c0.61-0.23,1.31-0.35,2.1-0.35c1.27,0,2.29,0.36,3.04,1.09
		c0.75,0.72,1.13,1.88,1.13,3.46v6.97c0,0.41,0.04,0.71,0.13,0.91c0.09,0.2,0.26,0.34,0.51,0.42c0.25,0.08,0.64,0.12,1.16,0.12v0.95
		H172.62z"/>
</g>
</svg>
